<svg xmlns="http://www.w3.org/2000/svg" width="30" height="30" viewBox="0 0 30 30">
  <g id="phone-call" transform="translate(0)">
    <g id="Group_76" data-name="Group 76">
      <path id="Path_170" data-name="Path 170" d="M25.6,4.391A15,15,0,1,0,30,15,15,15,0,0,0,25.6,4.391Zm-2.888,16.5,0,0v0l-.76.755a4,4,0,0,1-3.775,1.08A13.291,13.291,0,0,1,14.32,21a17.834,17.834,0,0,1-3.045-2.455A17.971,17.971,0,0,1,9,15.781a14,14,0,0,1-1.71-3.46,4,4,0,0,1,1-4.085l.89-.89a.635.635,0,0,1,.9,0l0,0,2.81,2.81a.635.635,0,0,1,0,.9l0,0-1.65,1.65a1.345,1.345,0,0,0-.14,1.75,19.3,19.3,0,0,0,1.975,2.305,19.178,19.178,0,0,0,2.6,2.185,1.355,1.355,0,0,0,1.73-.15L19,17.177a.635.635,0,0,1,.9,0l0,0L22.715,20A.635.635,0,0,1,22.717,20.894Z" transform="translate(0 0)" fill="#999"/>
    </g>
  </g>
</svg>
