<svg id="arroba" xmlns="http://www.w3.org/2000/svg" width="30" height="30" viewBox="0 0 30 30">
  <g id="Group_71" data-name="Group 71" transform="translate(12.422 12.305)">
    <g id="Group_70" data-name="Group 70">
      <path id="Path_165" data-name="Path 165" d="M214.637,210a2.637,2.637,0,1,0,2.637,2.637A2.64,2.64,0,0,0,214.637,210Z" transform="translate(-212 -210)" fill="#999"/>
    </g>
  </g>
  <g id="Group_73" data-name="Group 73">
    <g id="Group_72" data-name="Group 72">
      <path id="Path_166" data-name="Path 166" d="M14.941,0a15,15,0,0,0,0,30A15.159,15.159,0,0,0,30,14.941,15.059,15.059,0,0,0,14.941,0Zm6.27,19.336a3.509,3.509,0,0,1-2.872-1.5,4.4,4.4,0,1,1-.644-6.388v-.022a.879.879,0,0,1,1.758,0V15.82a1.758,1.758,0,0,0,3.516,0c0-5.882-3.892-8.789-7.91-8.789a7.91,7.91,0,0,0,0,15.82,7.825,7.825,0,0,0,4.808-1.629.879.879,0,0,1,1.071,1.394,9.573,9.573,0,0,1-5.879,1.993,9.668,9.668,0,0,1,0-19.336c4.857,0,9.668,3.582,9.668,10.547A3.519,3.519,0,0,1,21.211,19.336Z" fill="#999"/>
    </g>
  </g>
</svg>
