<svg xmlns="http://www.w3.org/2000/svg" width="20" height="13.848" viewBox="0 0 20 13.848">
  <path id="Path_180" data-name="Path 180" d="M379.99,497.736a20.876,20.876,0,0,0-.354-3.794,2.5,2.5,0,0,0-2.219-2.083,27.233,27.233,0,0,0-2.882-.235c-1.545-.069-3.092-.089-5.1-.092-.927.009-2.316.012-3.7.07a19.977,19.977,0,0,0-3.228.273,2.593,2.593,0,0,0-2.163,1.991,8.053,8.053,0,0,0-.171,1.032,34.833,34.833,0,0,0-.152,4.758,18.463,18.463,0,0,0,.283,3.2,2.7,2.7,0,0,0,2.233,2.193,19.857,19.857,0,0,0,2.68.244c1.911.089,3.824.093,5.736.081,1.788-.011,3.576-.035,5.359-.183a5.893,5.893,0,0,0,1.6-.261,2.749,2.749,0,0,0,1.839-2.418A30.282,30.282,0,0,0,379.99,497.736Zm-11.9,3.793v-6.148l4.993,3.074Z" transform="translate(-360 -491.532)" fill="#fff"/>
</svg>
