<svg xmlns="http://www.w3.org/2000/svg" width="16" height="16" viewBox="0 0 16 16">
  <g id="Group_82" data-name="Group 82" transform="translate(-800 -690)">
    <path id="Path_174" data-name="Path 174" d="M811.382,690h-6.764A4.618,4.618,0,0,0,800,694.618v6.764A4.618,4.618,0,0,0,804.618,706h6.764A4.618,4.618,0,0,0,816,701.382v-6.764A4.618,4.618,0,0,0,811.382,690Zm3.145,11.5a3.065,3.065,0,0,1-3.065,3.066h-6.922a3.065,3.065,0,0,1-3.065-3.066v-6.922a3.065,3.065,0,0,1,3.065-3.065h6.922a3.065,3.065,0,0,1,3.065,3.065Z" fill="#fff"/>
    <path id="Path_175" data-name="Path 175" d="M837.826,724.023a4.151,4.151,0,1,0,4.151,4.151A4.151,4.151,0,0,0,837.826,724.023Zm0,6.843a2.691,2.691,0,1,1,2.691-2.691A2.691,2.691,0,0,1,837.826,730.866Z" transform="translate(-29.826 -30.135)" fill="#fff"/>
    <circle id="Ellipse_3" data-name="Ellipse 3" cx="0.967" cy="0.967" r="0.967" transform="translate(811.323 692.763)" fill="#fff"/>
  </g>
</svg>
