<svg id="creative" xmlns="http://www.w3.org/2000/svg" width="80" height="80" viewBox="0 0 80 80">
  <path id="Path_17" data-name="Path 17" d="M145.549,125.476l-.22-.22a1.561,1.561,0,0,0-2.207,0L124.16,144.217l-.007.008a1.626,1.626,0,0,0-.137.159L124,144.4a1.627,1.627,0,0,0-.109.173l-.013.023c-.021.041-.041.082-.059.125,0,.012-.007.024-.012.037-.015.038-.026.076-.038.115s-.021.07-.029.106-.014.076-.02.114-.011.074-.014.112,0,.076,0,.114,0,.076,0,.114.009.074.014.112.011.076.02.114.019.071.029.106.023.078.038.116c0,.012.007.024.012.037.018.043.038.084.059.125l.013.023a1.7,1.7,0,0,0,.109.174l.013.018a1.565,1.565,0,0,0,.138.159l.006.007L128.733,151a1.56,1.56,0,0,0,2.206-2.206l-1.91-1.91h13.855v13.855l-3.377-3.377a1.56,1.56,0,0,0-2.206,2.206l5.82,5.82a1.561,1.561,0,0,0,2.206,0l.221-.221,18.741-18.741a1.56,1.56,0,0,0,0-2.206ZM129.03,143.761,142.885,129.9v13.856Zm16.976,16.534V130.346l14.974,14.974Zm0,0" transform="translate(-104.377 -105.299)" fill="#999"/>
  <path id="Path_18" data-name="Path 18" d="M146.2,9.513a1.551,1.551,0,0,0,.62-.129l.023-.01A33.433,33.433,0,0,1,156.2,6.81v3.3a1.56,1.56,0,0,0,1.56,1.56h8.552a1.56,1.56,0,0,0,1.56-1.56V1.56A1.56,1.56,0,0,0,166.314,0h-8.552a1.56,1.56,0,0,0-1.56,1.56V3.67a36.541,36.541,0,0,0-10.613,2.846l-.011,0a1.56,1.56,0,0,0,.621,2.992Zm13.123-6.392h5.432V8.552h-5.432Zm0,0" transform="translate(-122.037)" fill="#999"/>
  <path id="Path_19" data-name="Path 19" d="M72.4,381.815a33.174,33.174,0,0,1-7.713-7.966,1.56,1.56,0,1,0-2.573,1.766,36.293,36.293,0,0,0,8.437,8.713,1.56,1.56,0,1,0,1.849-2.514Zm0,0" transform="translate(-52.181 -314.864)" fill="#999"/>
  <path id="Path_20" data-name="Path 20" d="M240.091,439.618l-.038.017a33.431,33.431,0,0,1-9.732,2.6v-3.386a1.56,1.56,0,0,0-1.56-1.561h-8.552a1.56,1.56,0,0,0-1.56,1.561v8.552a1.56,1.56,0,0,0,1.56,1.56h8.552a1.56,1.56,0,0,0,1.56-1.56V445.38a36.524,36.524,0,0,0,10.984-2.887l.035-.015a1.56,1.56,0,0,0-1.25-2.859Zm-12.89,6.227h-5.432v-5.432H227.2Zm0,0" transform="translate(-184.485 -368.966)" fill="#999"/>
  <path id="Path_21" data-name="Path 21" d="M389.79,76.857a1.561,1.561,0,0,0,.4-2.17,36.284,36.284,0,0,0-8.442-8.708,1.56,1.56,0,1,0-1.847,2.515,33.159,33.159,0,0,1,7.717,7.961,1.56,1.56,0,0,0,2.17.4Zm0,0" transform="translate(-320.006 -55.414)" fill="#999"/>
  <path id="Path_22" data-name="Path 22" d="M447.406,215.738h-8.552a1.56,1.56,0,0,0-1.561,1.56v8.552a1.56,1.56,0,0,0,1.561,1.56h3.2a33.511,33.511,0,0,1-2.81,9,1.56,1.56,0,0,0,2.819,1.339,36.621,36.621,0,0,0,3.149-10.34h2.2a1.56,1.56,0,0,0,1.56-1.56V217.3A1.56,1.56,0,0,0,447.406,215.738Zm-1.561,8.552h-5.431v-5.432h5.431Zm0,0" transform="translate(-368.966 -182.029)" fill="#999"/>
  <path id="Path_23" data-name="Path 23" d="M11.673,163.5v-8.552a1.56,1.56,0,0,0-1.561-1.56H7a33.52,33.52,0,0,1,2.867-9.315,1.56,1.56,0,1,0-2.818-1.34,36.609,36.609,0,0,0-3.2,10.656H1.56A1.56,1.56,0,0,0,0,154.949V163.5a1.56,1.56,0,0,0,1.56,1.56h8.552a1.56,1.56,0,0,0,1.561-1.56Zm-3.121-1.561H3.121v-5.432H8.552Zm0,0" transform="translate(0 -119.68)" fill="#999"/>
  <path id="Path_24" data-name="Path 24" d="M448.513,153.111a1.561,1.561,0,0,0,1.517,1.2,1.578,1.578,0,0,0,.359-.042l.1-.023a1.56,1.56,0,0,0-.714-3.038l-.1.023a1.56,1.56,0,0,0-1.162,1.876Zm0,0" transform="translate(-378.397 -127.55)" fill="#999"/>
  <path id="Path_25" data-name="Path 25" d="M181.656,303.8l-.1.023a1.56,1.56,0,1,0,.714,3.038l.1-.023a1.56,1.56,0,1,0-.714-3.038Zm0,0" transform="translate(-152.176 -256.3)" fill="#999"/>
</svg>
