<svg id="abstract" xmlns="http://www.w3.org/2000/svg" width="80" height="80" viewBox="0 0 80 80">
  <path id="Path_13" data-name="Path 13" d="M69.526,34.99,45.011,10.473l2.731-2.731L40,0,32.258,7.742l2.987,2.987L10.73,35.246,7.742,32.258,0,40l7.742,7.742,2.733-2.733L34.99,69.527l-2.732,2.732L40,80l7.742-7.742-2.476-2.476L69.781,45.265l2.477,2.477L80,40l-7.742-7.742ZM43.5,68.015l-3.5-3.5-3.243,3.243L12.242,43.242,15.484,40,12.5,37.014,37.013,12.5,40,15.484l3.243-3.243L67.758,36.758,64.516,40l3.5,3.5Z" fill="#999"/>
</svg>
