<svg xmlns="http://www.w3.org/2000/svg" width="80" height="80" viewBox="0 0 80 80">
  <path id="coloring" d="M72.693,41a14.146,14.146,0,0,0,5.341-21.552A82.1,82.1,0,0,0,79.71,3.581a1.29,1.29,0,0,0-1.29-1.29A82.115,82.115,0,0,0,62.552,3.965,14.148,14.148,0,0,0,41,9.307,14.148,14.148,0,0,0,19.448,3.965,82.115,82.115,0,0,0,3.581,2.29a1.29,1.29,0,0,0-1.29,1.29A82.124,82.124,0,0,0,3.966,19.449,14.145,14.145,0,0,0,9.307,41,14.146,14.146,0,0,0,3.966,62.552,82.1,82.1,0,0,0,2.29,78.419a1.29,1.29,0,0,0,1.29,1.29,82.115,82.115,0,0,0,15.867-1.675A14.148,14.148,0,0,0,41,72.693a14.148,14.148,0,0,0,21.552,5.342A82.115,82.115,0,0,0,78.419,79.71a1.29,1.29,0,0,0,1.29-1.29,82.124,82.124,0,0,0-1.676-15.868A14.145,14.145,0,0,0,72.693,41Zm5.726,12.9a11.54,11.54,0,0,1-2.738,7.474,1.208,1.208,0,0,0-.084.112,11.62,11.62,0,0,1-6.711,3.825c1.4-3.733-.246-9.374-4.443-14.91a8.975,8.975,0,0,0,6.088-7.49A11.636,11.636,0,0,1,78.419,53.9Zm-31.186-6.67c3.448,2.128,7.658,4.089,11.508,4.089a19.5,19.5,0,0,0,2.964-.222c4.63,5.706,6.406,11.831,4.048,14.52l-.084.1a1.264,1.264,0,0,0-.141.107c-2.6,2.29-8.72.508-14.427-4.12a19.662,19.662,0,0,0,.221-2.964c0-3.849-1.961-8.059-4.089-11.508ZM41,68.1c-5.137,0-7.742-3.147-7.742-9.355,0-5.781,5.484-13.021,7.742-15.757,2.258,2.737,7.742,9.977,7.742,15.757C48.742,64.95,46.137,68.1,41,68.1ZM30.677,58.742a19.515,19.515,0,0,0,.222,2.964c-5.706,4.627-11.831,6.408-14.52,4.046l-.1-.088a1.075,1.075,0,0,0-.106-.137c-2.288-2.6-.508-8.723,4.12-14.427a19.5,19.5,0,0,0,2.964.222c3.85,0,8.061-1.961,11.508-4.089-2.128,3.449-4.089,7.659-4.089,11.508ZM16.246,16.379l.084-.1a1.263,1.263,0,0,0,.141-.107c2.6-2.288,8.721-.508,14.427,4.12a19.662,19.662,0,0,0-.221,2.964c0,3.849,1.961,8.061,4.089,11.51-3.448-2.129-7.658-4.09-11.508-4.09a19.5,19.5,0,0,0-2.964.222C15.666,25.195,13.888,19.068,16.246,16.379ZM41,13.9c5.137,0,7.742,3.147,7.742,9.355,0,5.781-5.484,13.021-7.742,15.757-2.258-2.737-7.742-9.977-7.742-15.757,0-6.208,2.605-9.355,7.742-9.355Zm10.323,9.355a19.515,19.515,0,0,0-.222-2.964c5.706-4.627,11.831-6.408,14.52-4.046l.1.088a1.076,1.076,0,0,0,.106.137c2.288,2.6.508,8.723-4.12,14.427a19.5,19.5,0,0,0-2.964-.222c-3.85,0-8.061,1.961-11.508,4.089C49.361,31.317,51.323,27.107,51.323,23.258Zm7.419,25.484c-5.781,0-13.022-5.484-15.759-7.742,2.734-2.258,9.969-7.742,15.759-7.742,6.208,0,9.355,2.605,9.355,7.742S64.95,48.742,58.742,48.742ZM23.258,33.258c5.781,0,13.022,5.484,15.759,7.742-2.734,2.258-9.969,7.742-15.759,7.742C17.05,48.742,13.9,46.137,13.9,41S17.05,33.258,23.258,33.258ZM70.53,39.086a8.977,8.977,0,0,0-6.088-7.49c4.188-5.525,5.835-11.156,4.449-14.889a11.723,11.723,0,0,1,6.7,3.8,1.272,1.272,0,0,0,.086.115,11.587,11.587,0,0,1-5.15,18.463Zm5.3-21.915a14.148,14.148,0,0,0-7.8-3.2,14.152,14.152,0,0,0-3.2-7.8A79.381,79.381,0,0,1,77.116,4.884,79.548,79.548,0,0,1,75.83,17.172ZM53.9,3.581a11.539,11.539,0,0,1,7.475,2.738,1.142,1.142,0,0,0,.108.083,11.624,11.624,0,0,1,3.827,6.714c-3.734-1.4-9.374.246-14.91,4.443a8.977,8.977,0,0,0-7.49-6.089A11.638,11.638,0,0,1,53.9,3.581ZM20.622,6.319a11.59,11.59,0,0,1,18.465,5.15,8.978,8.978,0,0,0-7.49,6.089c-5.534-4.2-11.175-5.841-14.91-4.443A11.62,11.62,0,0,1,20.511,6.4C20.548,6.377,20.587,6.348,20.622,6.319Zm-3.45-.15a14.152,14.152,0,0,0-3.2,7.8,14.148,14.148,0,0,0-7.8,3.2A79.547,79.547,0,0,1,4.884,4.884,79.556,79.556,0,0,1,17.172,6.169ZM3.581,28.1a11.54,11.54,0,0,1,2.738-7.474,1.209,1.209,0,0,0,.084-.112,11.624,11.624,0,0,1,6.711-3.825c-1.4,3.733.246,9.374,4.443,14.91a8.975,8.975,0,0,0-6.088,7.49A11.636,11.636,0,0,1,3.581,28.1ZM11.47,42.914a8.977,8.977,0,0,0,6.088,7.49c-4.2,5.535-5.841,11.177-4.443,14.91a11.624,11.624,0,0,1-6.708-3.822,1.272,1.272,0,0,0-.086-.115,11.587,11.587,0,0,1,5.15-18.463ZM6.17,64.828a14.148,14.148,0,0,0,7.8,3.2,14.152,14.152,0,0,0,3.2,7.8A79.4,79.4,0,0,1,4.884,77.116,79.547,79.547,0,0,1,6.17,64.828ZM28.1,78.419a11.539,11.539,0,0,1-7.475-2.738,1.143,1.143,0,0,0-.108-.083,11.634,11.634,0,0,1-3.828-6.721,8.2,8.2,0,0,0,2.9.507c3.462,0,7.769-1.732,12.01-4.946a8.975,8.975,0,0,0,7.492,6.092A11.637,11.637,0,0,1,28.1,78.419Zm33.281-2.738a11.59,11.59,0,0,1-18.465-5.15,8.977,8.977,0,0,0,7.492-6.092c4.241,3.215,8.547,4.946,12.01,4.946a8.2,8.2,0,0,0,2.9-.507A11.628,11.628,0,0,1,61.489,75.6c-.037.026-.076.054-.111.084Zm3.45.15a14.152,14.152,0,0,0,3.2-7.8,14.148,14.148,0,0,0,7.8-3.2,79.515,79.515,0,0,1,1.286,12.288A79.556,79.556,0,0,1,64.828,75.831Z" transform="translate(-1 -1)" fill="#999"/>
</svg>
